<?xml version="1.0" encoding="UTF-8" standalone="no"?>
<!-- Created with Inkscape (http://www.inkscape.org/) -->

<svg
   xmlns:dc="http://purl.org/dc/elements/1.1/"
   xmlns:cc="http://creativecommons.org/ns#"
   xmlns:rdf="http://www.w3.org/1999/02/22-rdf-syntax-ns#"
   xmlns:svg="http://www.w3.org/2000/svg"
   xmlns="http://www.w3.org/2000/svg"
   xmlns:sodipodi="http://sodipodi.sourceforge.net/DTD/sodipodi-0.dtd"
   xmlns:inkscape="http://www.inkscape.org/namespaces/inkscape"
   width="30.962706mm"
   height="32.840881mm"
   viewBox="0 0 109.71037 116.36533"
   id="svg4266"
   version="1.1"
   inkscape:version="0.92.4 (5da689c313, 2019-01-14)"
   sodipodi:docname="lawyer.svg">
  <defs
     id="defs4268" />
  <sodipodi:namedview
     id="base"
     pagecolor="#ffffff"
     bordercolor="#666666"
     borderopacity="1.0"
     inkscape:pageopacity="0.0"
     inkscape:pageshadow="2"
     inkscape:zoom="0.35"
     inkscape:cx="-770.10685"
     inkscape:cy="-460.22421"
     inkscape:document-units="px"
     inkscape:current-layer="layer1"
     showgrid="false"
     inkscape:window-width="1920"
     inkscape:window-height="1017"
     inkscape:window-x="1912"
     inkscape:window-y="-8"
     inkscape:window-maximized="1" />
  <metadata
     id="metadata4271">
    <rdf:RDF>
      <cc:Work
         rdf:about="">
        <dc:format>image/svg+xml</dc:format>
        <dc:type
           rdf:resource="http://purl.org/dc/dcmitype/StillImage" />
        <dc:title />
      </cc:Work>
    </rdf:RDF>
  </metadata>
  <g
     inkscape:label="Layer 1"
     inkscape:groupmode="layer"
     id="layer1"
     transform="translate(-10.144816,-17.036683)">
    <g
       id="g5173">
      <g
         id="g5140">
        <path
           id="path116"
           style="fill:#2d2e3f;fill-opacity:1;fill-rule:nonzero;stroke:none"
           d="m 24.600499,32.676683 c 0,0 -2.8704,-11.10133 11.18227,-12.548 12.15573,-1.252 16.09266,5.444 17.3796,8.808 1.28706,3.36533 -12.99787,13.54933 -12.99787,13.54933 l -15.564,-9.80933"
           inkscape:connector-curvature="0" />
        <path
           id="path118"
           style="fill:#eea78d;fill-opacity:1;fill-rule:nonzero;stroke:none"
           d="m 33.724899,61.370013 -1.70253,-16.72933 11.99573,-1.21333 1.7032,16.72933 c 0.3344,3.312 -2.07973,6.26933 -5.39226,6.604 v 0 c -3.3124,0.33467 -6.2692,-2.07867 -6.60414,-5.39067"
           inkscape:connector-curvature="0" />
        <path
           id="path120"
           style="fill:#d77b71;fill-opacity:1;fill-rule:nonzero;stroke:none"
           d="m 31.687439,45.578013 c 0,0 2.77493,14.192 13.8292,12.792 l -0.73707,-7.176 -13.09213,-5.616"
           inkscape:connector-curvature="0" />
        <path
           id="path122"
           style="fill:#2d2e3f;fill-opacity:1;fill-rule:nonzero;stroke:none"
           d="m 46.711439,24.063353 c 0,0 8.51039,-0.588 7.08586,13.016 l -4.5516,-5.524 -2.53426,-7.492"
           inkscape:connector-curvature="0" />
        <path
           id="path124"
           style="fill:#d77b71;fill-opacity:1;fill-rule:nonzero;stroke:none"
           d="m 47.760369,40.498013 c 0.24373,2.30934 2.31346,3.984 4.62293,3.74 2.30933,-0.244 3.98387,-2.31333 3.7396,-4.62266 -0.2444,-2.30934 -2.31413,-3.984 -4.62293,-3.74 -2.31,0.244 -3.98387,2.31333 -3.7396,4.62266"
           inkscape:connector-curvature="0" />
        <path
           id="path126"
           style="fill:#eea78d;fill-opacity:1;fill-rule:nonzero;stroke:none"
           d="m 43.163439,56.127353 v 0 c 6.42293,-0.67867 11.26879,-5.108 10.58959,-11.52934 l -1.35306,-12.80666 c -0.29534,-2.796 -2.82507,-4.84134 -5.6204,-4.54667 l -13.188,1.39467 c -2.79587,0.29466 -4.84107,2.824 -4.54587,5.62 l 1.16254,11.00133 c 0.67866,6.42133 7.54013,11.43867 12.9552,10.86667"
           inkscape:connector-curvature="0" />
        <path
           id="path128"
           style="fill:#2d2e3f;fill-opacity:1;fill-rule:nonzero;stroke:none"
           d="m 30.741569,41.624683 v 0 c 0,0 6.13853,-4.63867 2.85,-12.98533 l -6.56307,0.69333 c 0,0 -1.05933,-1.392 -2.28746,0.668 -1.22814,2.06 2.36093,11.18667 2.36093,11.18667 l 3.6396,0.43733"
           inkscape:connector-curvature="0" />
        <path
           id="path130"
           style="fill:#eea78d;fill-opacity:1;fill-rule:nonzero;stroke:none"
           d="m 24.764499,42.928683 c 0.24427,2.30933 2.314,3.984 4.624,3.74 2.3088,-0.244 3.9828,-2.31467 3.73907,-4.624 -0.24373,-2.30933 -2.31413,-3.984 -4.62347,-3.74 -2.30893,0.244 -3.98333,2.31467 -3.7396,4.624"
           inkscape:connector-curvature="0" />
        <path
           id="path132"
           style="fill:#1e1f26;fill-opacity:1;fill-rule:nonzero;stroke:none"
           d="m 42.023299,38.876683 c 0.0167,0.51333 -0.3848,0.94267 -0.89786,0.96133 -0.51307,0.0173 -0.9432,-0.38533 -0.9604,-0.89866 -0.0177,-0.512 0.3844,-0.94267 0.89733,-0.96 0.5136,-0.0173 0.94333,0.384 0.96093,0.89733"
           inkscape:connector-curvature="0" />
        <path
           id="path134"
           style="fill:#1e1f26;fill-opacity:1;fill-rule:nonzero;stroke:none"
           d="m 50.741029,37.884683 c 0.0177,0.51333 -0.38386,0.94267 -0.8968,0.96133 -0.51413,0.016 -0.94333,-0.38533 -0.9604,-0.89866 -0.0177,-0.51334 0.38427,-0.94267 0.8968,-0.96 0.51414,-0.0173 0.94374,0.38533 0.9604,0.89733"
           inkscape:connector-curvature="0" />
        <path
           id="path136"
           style="fill:none;stroke:#d77b71;stroke-width:0.74121332;stroke-linecap:round;stroke-linejoin:round;stroke-miterlimit:10;stroke-dasharray:none;stroke-opacity:1"
           d="m 47.186369,39.067353 0.65466,3.10266 c 0,0 -0.009,1.41334 -2.05626,1.08667"
           inkscape:connector-curvature="0" />
        <path
           id="path138"
           style="fill:#1e1f26;fill-opacity:1;fill-rule:nonzero;stroke:none"
           d="m 38.320239,36.471353 c 0.0557,0.003 0.1136,0 0.1724,-0.008 l 4.164,-0.62 c 0.46466,-0.0693 0.78493,-0.50267 0.71626,-0.96667 -0.0683,-0.46533 -0.4996,-0.78533 -0.96773,-0.71733 l -4.16413,0.62 c -0.46454,0.0693 -0.7848,0.50133 -0.71614,0.96666 0.0599,0.40667 0.39947,0.704 0.79534,0.72534"
           inkscape:connector-curvature="0" />
        <path
           id="path140"
           style="fill:#1e1f26;fill-opacity:1;fill-rule:nonzero;stroke:none"
           d="m 48.640499,35.150013 c 0.0557,0.003 0.11467,0 0.17187,-0.008 l 2.54533,-0.37866 c 0.4656,-0.0693 0.786,-0.50267 0.7172,-0.96667 -0.0687,-0.46533 -0.502,-0.78667 -0.96667,-0.71733 l -2.54586,0.37866 c -0.4656,0.0693 -0.78534,0.50267 -0.7172,0.96667 0.0611,0.408 0.3996,0.704 0.79533,0.72533"
           inkscape:connector-curvature="0" />
        <path
           id="path142"
           style="fill:#2d2e3f;fill-opacity:1;fill-rule:nonzero;stroke:none"
           d="m 33.686369,35.839353 c 0,0 0.074,8.60533 2.1312,10.98533 2.05627,2.38133 3.75627,-0.44267 10.48707,-1.892 6.73013,-1.44933 7.76453,1.73733 7.76453,1.73733 0,0 0.18493,8.66267 -8.69373,9.6 -6.89374,0.72934 -14.0588,-0.47866 -13.35307,-11.62933 0.7052,-11.152 -3.25573,-13.60933 -3.25573,-13.60933 l 4.91973,4.808"
           inkscape:connector-curvature="0" />
        <path
           id="path144"
           style="fill:#2d2e3f;fill-opacity:1;fill-rule:nonzero;stroke:none"
           d="m 33.591569,28.639353 c 0,0 3.86307,1.75066 9.7912,0.96933 6.23586,-0.82267 12.02346,1.792 12.02346,1.792 0,0 4.00774,-14.364 -12.02346,-14.364 -19.19173,0 -14.33707,17.22267 -14.33707,17.22267 l 4.54587,-5.62"
           inkscape:connector-curvature="0" />
        <path
           id="path146"
           style="fill:#d1cfcd;fill-opacity:1;fill-rule:nonzero;stroke:none"
           d="m 63.133829,68.550013 13.64467,31.726657 -17.31453,6.86 z"
           inkscape:connector-curvature="0" />
        <path
           id="path148"
           style="fill:#dddad8;fill-opacity:1;fill-rule:nonzero;stroke:none"
           d="m 76.778499,100.27667 c 0,0 1.36627,-1.173327 2.58133,1.068 1.21534,2.24 1.32734,3.65467 1.32734,3.65467 l -20.8424,9.1 -0.3808,-6.96267 17.31453,-6.86"
           inkscape:connector-curvature="0" />
        <path
           id="path150"
           style="fill:#eea78d;fill-opacity:1;fill-rule:nonzero;stroke:none"
           d="m 78.762899,105.89934 20.98293,-8.329327 3.630671,6.911997 -33.057871,16.844 c 0,0 -7.13226,1.46266 -8.85933,-7.87067 l 17.3036,-7.556"
           inkscape:connector-curvature="0" />
        <path
           id="path152"
           style="fill:#eea78d;fill-opacity:1;fill-rule:nonzero;stroke:none"
           d="m 99.745829,97.570013 4.590671,-10.644 c 0.24133,-0.584 0.85733,-0.92 1.47867,-0.80934 v 0 c 0.7,0.12667 1.18,0.776 1.096,1.48134 l -0.42,3.5 10.70934,-5.004 c 0.90267,-0.42134 1.95067,0.17066 2.056,1.16133 l 0.59067,5.60267 c 0.048,0.46133 -0.12134,0.91333 -0.46534,1.224 -2.37333,2.14 -11.96934,10.497327 -17.30267,10.599997 l -2.333341,-7.111997"
           inkscape:connector-curvature="0" />
        <path
           id="path154"
           style="fill:none;stroke:#d17572;stroke-width:0.71420532;stroke-linecap:round;stroke-linejoin:round;stroke-miterlimit:10;stroke-dasharray:none;stroke-opacity:1"
           d="m 108.79917,92.055343 c 0,0 2.13601,3.14533 0.56,7.396"
           inkscape:connector-curvature="0" />
        <path
           id="path156"
           style="fill:#d1cfcd;fill-opacity:1;fill-rule:nonzero;stroke:none"
           d="m 33.724899,61.370013 -19.03693,12.224 10.48747,55.767997 h 38.50306 l 0.67613,-56.642667 c -0.11933,-3.57867 -2.40893,-6.72266 -5.77813,-7.93599 l -12.8552,-4.62667 -3.54693,6.11067 -8.44947,-4.89734"
           inkscape:connector-curvature="0" />
        <path
           id="path158"
           style="fill:none;stroke:#bebebc;stroke-width:1;stroke-linecap:butt;stroke-linejoin:miter;stroke-miterlimit:10;stroke-dasharray:none;stroke-opacity:1"
           d="M 63.821299,112.42334 V 79.431343"
           inkscape:connector-curvature="0" />
        <path
           id="path160"
           style="fill:#d1cfcd;fill-opacity:1;fill-rule:nonzero;stroke:none"
           d="m 33.724899,61.370013 8.44947,4.89734 3.54693,-6.11067 3.162,4.444 -7.57973,5.70933 -9.2812,-2.13333 1.70253,-6.80667"
           inkscape:connector-curvature="0" />
        <path
           id="path162"
           style="fill:none;stroke:#bebebc;stroke-width:1;stroke-linecap:butt;stroke-linejoin:miter;stroke-miterlimit:10;stroke-dasharray:none;stroke-opacity:1"
           d="m 30.183299,63.643353 8.41867,9.95066 3.5724,-7.32666"
           inkscape:connector-curvature="0" />
        <path
           id="path164"
           style="fill:none;stroke:#bebebc;stroke-width:1;stroke-linecap:butt;stroke-linejoin:miter;stroke-miterlimit:10;stroke-dasharray:none;stroke-opacity:1"
           d="m 50.498899,61.876683 -3.33387,10.57066 -4.99066,-6.17999 c 0,0 5.24373,36.389317 4.16253,61.274667"
           inkscape:connector-curvature="0" />
        <path
           id="path166"
           style="fill:#d1cfcd;fill-opacity:1;fill-rule:nonzero;stroke:none"
           d="m 14.687969,73.594013 c 0,0 -5.9969304,3.664 -4.21093,16.628 1.78587,12.965327 5.58013,22.786657 5.58013,22.786657 l 18.5032,-7.812 -5.038,-23.438657 -14.8344,-8.164"
           inkscape:connector-curvature="0" />
        <path
           id="path168"
           style="fill:#dddad8;fill-opacity:1;fill-rule:nonzero;stroke:none"
           d="m 14.687969,110.80334 c 0,0 -3.09533,7.16534 5.83387,9.48533 l -1.11667,-2.592 16.9656,-9.012 c 0,0 1.57187,-5.644 -4.3484,-5.90666 l -17.3344,8.02533"
           inkscape:connector-curvature="0" />
        <path
           id="path170"
           style="fill:#eea78d;fill-opacity:1;fill-rule:nonzero;stroke:none"
           d="m 36.719699,108.07134 21.276,-11.058667 4.58027,6.913337 -33.11973,21.35466 c 0,0 -7.3792,2.31334 -10.20787,-7.364 l 17.47133,-9.84533"
           inkscape:connector-curvature="0" />
        <path
           id="path172"
           style="fill:#eea78d;fill-opacity:1;fill-rule:nonzero;stroke:none"
           d="m 57.995699,97.012673 3.70573,-11.74133 c 0.1928,-0.64267 0.8068,-1.064 1.47614,-1.012 v 0 c 0.75253,0.056 1.33013,0.69067 1.3172,1.44667 l -0.0672,3.74266 10.77813,-6.43866 c 0.9072,-0.54267 2.0796,-0.0307 2.2968,1.00533 l 1.22653,5.85733 c 0.10054,0.48134 -0.0296,0.97734 -0.35933,1.34267 -2.2776,2.51733 -11.51827,12.379997 -17.14267,13.062667 l -3.23133,-7.265337"
           inkscape:connector-curvature="0" />
        <path
           id="path174"
           style="fill:none;stroke:#bebebc;stroke-width:1;stroke-linecap:butt;stroke-linejoin:miter;stroke-miterlimit:10;stroke-dasharray:none;stroke-opacity:1"
           d="M 32.022369,102.77801 28.766639,87.843343"
           inkscape:connector-curvature="0" />
        <path
           id="path192"
           style="fill:none;stroke:#706f67;stroke-width:1;stroke-linecap:butt;stroke-linejoin:miter;stroke-miterlimit:10;stroke-dasharray:none;stroke-opacity:1"
           d="m 25.336899,132.90201 h 38.34693"
           inkscape:connector-curvature="0" />
      </g>
    </g>
  </g>
</svg>
