<?xml version="1.0" encoding="UTF-8" standalone="no"?>
<svg
   xmlns:dc="http://purl.org/dc/elements/1.1/"
   xmlns:cc="http://creativecommons.org/ns#"
   xmlns:rdf="http://www.w3.org/1999/02/22-rdf-syntax-ns#"
   xmlns:svg="http://www.w3.org/2000/svg"
   xmlns="http://www.w3.org/2000/svg"
   xmlns:sodipodi="http://sodipodi.sourceforge.net/DTD/sodipodi-0.dtd"
   xmlns:inkscape="http://www.inkscape.org/namespaces/inkscape"
   viewBox="0 0 114.77838 114.26778"
   height="114.26778"
   width="114.77838"
   xml:space="preserve"
   id="svg2"
   version="1.1"
   sodipodi:docname="offerer.svg"
   inkscape:version="0.92.4 (5da689c313, 2019-01-14)"><sodipodi:namedview
     pagecolor="#ffffff"
     bordercolor="#666666"
     borderopacity="1"
     objecttolerance="10"
     gridtolerance="10"
     guidetolerance="10"
     inkscape:pageopacity="0"
     inkscape:pageshadow="2"
     inkscape:window-width="1920"
     inkscape:window-height="1017"
     id="namedview304"
     showgrid="false"
     inkscape:zoom="1.416"
     inkscape:cx="225.01002"
     inkscape:cy="-46.082787"
     inkscape:window-x="1912"
     inkscape:window-y="-8"
     inkscape:window-maximized="1"
     inkscape:current-layer="svg2" /><metadata
     id="metadata8"><rdf:RDF><cc:Work
         rdf:about=""><dc:format>image/svg+xml</dc:format><dc:type
           rdf:resource="http://purl.org/dc/dcmitype/StillImage" /><dc:title></dc:title></cc:Work></rdf:RDF></metadata><defs
     id="defs6" /><path
     id="path32"
     style="fill:#f8a38c;fill-opacity:1;fill-rule:nonzero;stroke:none;stroke-width:0.13333333"
     d="m 56.250471,64.318443 -10.52667,30.32267 2.46933,5.945337 14.20134,-2.685337 4.02266,-32.464 -10.16666,-1.11867"
     inkscape:connector-curvature="0" /><path
     id="path34"
     style="fill:#d82435;fill-opacity:1;fill-rule:nonzero;stroke:none;stroke-width:0.13333333"
     d="m 62.611801,49.542443 c 0,0 -8.32533,4.716 -10.16133,20.27067 l 10.98533,6.55333 -0.824,-26.824"
     inkscape:connector-curvature="0" /><path
     id="path36"
     style="fill:#d82435;fill-opacity:1;fill-rule:nonzero;stroke:none;stroke-width:0.13333333"
     d="m 76.850471,43.557113 -14.23867,5.98533 -11.208,49.93867 37.51467,14.786667 19.989329,-56.957337 c 0,0 -3.25333,-11.892 -22.023999,-14.912 l -10.03333,1.15867"
     inkscape:connector-curvature="0" /><path
     id="path38"
     style="fill:#f3a68d;fill-opacity:1;fill-rule:nonzero;stroke:none;stroke-width:0.13333333"
     d="m 114.75447,102.20779 c -0.0253,-0.65734 -0.424,-4.606677 -0.59334,-5.241347 l -6.18133,-39.57866 c -1.20667,-5.42134 -7.284,-8.15867 -12.143999,-5.47067 -3.56667,1.97467 -5.17733,6.244 -3.80133,10.08267 l 7.35066,33.992 15.369339,6.216007"
     inkscape:connector-curvature="0" /><path
     id="path40"
     style="fill:#f3a68d;fill-opacity:1;fill-rule:nonzero;stroke:none;stroke-width:0.13333333"
     d="m 106.33447,93.730443 -41.842669,-3.26266 -2.09733,7.43333 40.297329,13.625337 c 6.19467,2.09467 12.52533,-2.796 12.06267,-9.31866 v 0 c -0.32,-4.521347 -3.90134,-8.126677 -8.42,-8.477347"
     inkscape:connector-curvature="0" /><path
     id="path42"
     style="fill:#d82435;fill-opacity:1;fill-rule:nonzero;stroke:none;stroke-width:0.13333333"
     d="m 103.78247,50.722443 c 0,0 5.36133,2.31867 7.64533,16.14267 l -18.850669,5.79067 c 0,0 -12.32266,-13.79867 0.848,-23.02134 l 10.357339,1.088"
     inkscape:connector-curvature="0" /><path
     id="path44"
     style="fill:#f8a38c;fill-opacity:1;fill-rule:nonzero;stroke:none;stroke-width:0.13333333"
     d="m 51.349131,98.331783 c 1.532,4.106667 9.29334,4.290667 13.4,2.760007 4.10667,-1.532007 8.33734,-3.913347 6.80534,-8.018677 -1.53067,-4.108 -8.4,-6.552 -12.868,-5.53733 -5.45334,1.23866 -8.868,6.68933 -7.33734,10.796"
     inkscape:connector-curvature="0" /><path
     id="path46"
     style="fill:#d3cfcf;fill-opacity:1;fill-rule:nonzero;stroke:none;stroke-width:0.13333333"
     d="m 74.133131,103.92112 -29.872,-3.84 0.43334,-3.369337 29.872,3.838667 c 0.92933,0.12 1.588,0.97067 1.468,1.90134 v 0 c -0.11867,0.93066 -0.97067,1.58933 -1.90134,1.46933"
     inkscape:connector-curvature="0" /><path
     id="path48"
     style="fill:#d3cfcf;fill-opacity:1;fill-rule:nonzero;stroke:none;stroke-width:0.13333333"
     d="M 48.193131,100.58645 8.6091296,95.499783 c -2.28,-0.29334 -4.08533,-2.06934 -4.41333,-4.34534 L 0.04112962,62.431783 c -0.368,-2.53867 1.78666998,-4.72934 4.33333998,-4.40267 l 36.3546614,4.67333 c 1.52267,0.196 2.72,1.392 2.91867,2.91334 l 4.54533,34.970667"
     inkscape:connector-curvature="0" /><path
     id="path50"
     style="fill:#ffffff;fill-opacity:1;fill-rule:nonzero;stroke:none;stroke-width:0.13333333"
     d="m 26.226471,80.878443 c -0.26534,2.06934 -2.15734,3.52934 -4.22534,3.264 -2.068,-0.26533 -3.52933,-2.15733 -3.264,-4.22666 0.26534,-2.068 2.15867,-3.52934 4.22667,-3.26267 2.068,0.26533 3.52933,2.15733 3.26267,4.22533"
     inkscape:connector-curvature="0" /><path
     id="path78"
     style="fill:#1e1f26;fill-opacity:1;fill-rule:nonzero;stroke:none;stroke-width:0.13333333"
     d="m 87.894471,31.481113 c 0.52133,-0.95067 13.979999,-18.524 1.236,-24.0506698 0,0 -1.02934,-8.25731999 -10.27734,-7.36265999 -9.24933,0.89467 -6.716,3.60665999 -12.60666,2.26399999 -5.88934,-1.34265999 -11.43467,1.69466 -10.988,6.61733 0.448,4.9226698 4.2,7.0106698 10.988,5.8173298 6.78933,-1.19333 12.15866,-0.29866 12.15866,-0.29866 l 5.668,1.652 3.82134,15.36133"
     inkscape:connector-curvature="0" /><path
     id="path80"
     style="fill:#e8a38a;fill-opacity:1;fill-rule:nonzero;stroke:none;stroke-width:0.13333333"
     d="m 89.029131,44.962443 -0.71866,-19.89333 -13.792,4.864 1.09333,15.94933 c 0.256,3.70534 2.304,6.57734 6.00933,6.32267 l 1.16,-0.0747 c 3.70534,-0.25333 6.50267,-3.464 6.248,-7.168"
     inkscape:connector-curvature="0" /><path
     id="path82"
     style="fill:#d27772;fill-opacity:1;fill-rule:nonzero;stroke:none;stroke-width:0.13333333"
     d="m 87.141131,27.822443 c 0,0 2.59467,16.61734 -11.556,17.572 l -0.64133,-7.86666 12.19733,-9.70534"
     inkscape:connector-curvature="0" /><path
     id="path84"
     style="fill:#d27772;fill-opacity:1;fill-rule:nonzero;stroke:none;stroke-width:0.13333333"
     d="m 58.965131,25.818443 c 0.112,2.384 2.136,4.22534 4.51867,4.11334 2.38267,-0.112 4.22533,-2.13467 4.11333,-4.51867 -0.112,-2.38267 -2.136,-4.224 -4.51866,-4.112 -2.38267,0.11067 -4.22534,2.13333 -4.11334,4.51733"
     inkscape:connector-curvature="0" /><path
     id="path86"
     style="fill:#e8a38a;fill-opacity:1;fill-rule:nonzero;stroke:none;stroke-width:0.13333333"
     d="m 75.421131,41.659783 0.476,-0.0227 c 7.06667,-0.332 12.52667,-6.328 12.19467,-13.39467 l -0.67733,-14.444 c -0.0867,-1.83066 -1.63867,-3.24266 -3.468,-3.15733 l -16.83867,0.79067 c -3.26667,0.152 -5.78933,2.92533 -5.63733,6.192 l 0.556,11.84133 c 0.33066,7.06667 6.328,12.52533 13.39466,12.19467"
     inkscape:connector-curvature="0" /><path
     id="path88"
     style="fill:#e8a38a;fill-opacity:1;fill-rule:nonzero;stroke:none;stroke-width:0.13333333"
     d="m 84.895801,23.902443 c 0.112,2.38267 2.13467,4.224 4.51733,4.112 2.384,-0.112 4.22534,-2.13333 4.11334,-4.51733 -0.112,-2.38267 -2.13467,-4.22533 -4.51867,-4.11333 -2.38267,0.112 -4.224,2.13466 -4.112,4.51866"
     inkscape:connector-curvature="0" /><path
     id="path90"
     style="fill:#1e1f26;fill-opacity:1;fill-rule:nonzero;stroke:none;stroke-width:0.13333333"
     d="m 82.821131,12.355783 0.84667,16.12533 c 0.0773,1.46 -0.52267,2.92667 -1.72533,3.75867 -0.76534,0.53066 -1.35334,1.22933 -2.71734,1.02933 -3.836,-0.56133 -2.068,-3.40933 -9.852,-2.98 -7.12933,0.392 -6.58,4.348 -6.58,4.348 0,0 1.38134,7.53333 11.16,7.89467 9.78,0.36 14.64134,-5.828 13.52,-14.06934 l -0.96933,-17.02266 -3.68267,0.916"
     inkscape:connector-curvature="0" /><path
     id="path92"
     style="fill:#1e1f26;fill-opacity:1;fill-rule:nonzero;stroke:none;stroke-width:0.13333333"
     d="m 81.463801,13.489113 c 0,0 -0.90667,6.44533 4.25067,6.336 5.156,-0.10933 -0.44534,-6.868 -0.44534,-6.868 l -3.80533,0.532"
     inkscape:connector-curvature="0" /><path
     id="path94"
     style="fill:#1e1f26;fill-opacity:1;fill-rule:nonzero;stroke:none;stroke-width:0.13333333"
     d="m 73.090471,23.478443 c 0.0707,0.572 0.59333,0.97867 1.16666,0.908 0.572,-0.072 0.97867,-0.59466 0.90667,-1.16666 -0.0707,-0.57334 -0.59333,-0.97867 -1.16667,-0.908 -0.572,0.072 -0.97866,0.59333 -0.90666,1.16666"
     inkscape:connector-curvature="0" /><path
     id="path96"
     style="fill:#1e1f26;fill-opacity:1;fill-rule:nonzero;stroke:none;stroke-width:0.13333333"
     d="m 64.163801,23.869113 c 0.072,0.57333 0.59467,0.97867 1.16667,0.908 0.57333,-0.072 0.98,-0.59333 0.908,-1.16667 -0.072,-0.572 -0.59334,-0.97866 -1.16667,-0.90666 -0.572,0.0707 -0.97733,0.592 -0.908,1.16533"
     inkscape:connector-curvature="0" /><path
     id="path98"
     style="fill:none;stroke:#d27772;stroke-width:0.83319062;stroke-linecap:round;stroke-linejoin:round;stroke-miterlimit:10;stroke-dasharray:none;stroke-opacity:1"
     d="m 68.285131,23.878443 -0.0533,4.34534 c 0,0 0.26133,1.568 2.476,0.84266"
     inkscape:connector-curvature="0" /><path
     id="path100"
     style="fill:#1e1f26;fill-opacity:1;fill-rule:nonzero;stroke:none;stroke-width:0.13333333"
     d="m 76.775801,20.153113 c -0.0613,0.0133 -0.12667,0.02 -0.19333,0.0213 l -4.732,0.048 c -0.528,0.005 -0.96134,-0.41866 -0.96667,-0.948 -0.005,-0.528 0.416,-0.95733 0.94667,-0.96533 l 4.73333,-0.0493 c 0.528,-0.004 0.96,0.41866 0.96667,0.948 0.004,0.46133 -0.31867,0.85066 -0.75467,0.94533"
     inkscape:connector-curvature="0" /><path
     id="path102"
     style="fill:#1e1f26;fill-opacity:1;fill-rule:nonzero;stroke:none;stroke-width:0.13333333"
     d="m 66.014471,20.462443 c -0.0627,0.0133 -0.128,0.02 -0.192,0.0213 l -2.89334,0.0293 c -0.52933,0.005 -0.96133,-0.41867 -0.96666,-0.94667 -0.007,-0.528 0.41866,-0.96133 0.94533,-0.96666 l 2.89333,-0.0307 c 0.528,-0.004 0.96134,0.42 0.968,0.948 0.004,0.46133 -0.32,0.85067 -0.75466,0.94533"
     inkscape:connector-curvature="0" /><path
     id="path104"
     style="fill:#1e1f26;fill-opacity:1;fill-rule:nonzero;stroke:none;stroke-width:0.13333333"
     d="m 61.926471,15.066443 c 0,0 4.564,0.71334 11.156,-0.91866 6.59066,-1.63334 11.808,3.68133 11.808,3.68133 0,0 1.404,2.45733 1.75733,2.39333 0.352,-0.064 2.36,-0.83866 2.36,-0.83866 l -0.0813,-7.45334 -4.81734,-3.7693298 -13.40133,-0.54533 -7.92533,1.744 -0.856,5.7066598"
     inkscape:connector-curvature="0" /></svg>