<?xml version="1.0" encoding="UTF-8" standalone="no"?>
<!-- Created with Inkscape (http://www.inkscape.org/) -->

<svg
   xmlns:dc="http://purl.org/dc/elements/1.1/"
   xmlns:cc="http://creativecommons.org/ns#"
   xmlns:rdf="http://www.w3.org/1999/02/22-rdf-syntax-ns#"
   xmlns:svg="http://www.w3.org/2000/svg"
   xmlns="http://www.w3.org/2000/svg"
   xmlns:sodipodi="http://sodipodi.sourceforge.net/DTD/sodipodi-0.dtd"
   xmlns:inkscape="http://www.inkscape.org/namespaces/inkscape"
   width="34.595867mm"
   height="29.637691mm"
   viewBox="0 0 34.595867 29.637691"
   version="1.1"
   id="svg4759"
   inkscape:version="0.92.4 (5da689c313, 2019-01-14)"
   sodipodi:docname="user.svg">
  <defs
     id="defs4753" />
  <sodipodi:namedview
     id="base"
     pagecolor="#ffffff"
     bordercolor="#666666"
     borderopacity="1.0"
     inkscape:pageopacity="0.0"
     inkscape:pageshadow="2"
     inkscape:zoom="0.35"
     inkscape:cx="65.378013"
     inkscape:cy="56.008277"
     inkscape:document-units="mm"
     inkscape:current-layer="layer1"
     showgrid="false"
     inkscape:lockguides="true"
     inkscape:window-width="1920"
     inkscape:window-height="1017"
     inkscape:window-x="1912"
     inkscape:window-y="-8"
     inkscape:window-maximized="1" />
  <metadata
     id="metadata4756">
    <rdf:RDF>
      <cc:Work
         rdf:about="">
        <dc:format>image/svg+xml</dc:format>
        <dc:type
           rdf:resource="http://purl.org/dc/dcmitype/StillImage" />
        <dc:title></dc:title>
      </cc:Work>
    </rdf:RDF>
  </metadata>
  <g
     inkscape:label="Layer 1"
     inkscape:groupmode="layer"
     id="layer1"
     transform="translate(37.330671,-134.0145)">
    <path
       id="path334"
       style="fill:#e6a188;fill-opacity:1;fill-rule:nonzero;stroke:none;stroke-width:0.03527778"
       d="m -13.54225,153.08579 -2.405592,2.55235 0.969082,1.5935 2.541058,-2.76755 -1.104548,-1.3783"
       inkscape:connector-curvature="0" />
    <path
       id="path336"
       style="fill:#fabac0;fill-opacity:1;fill-rule:nonzero;stroke:none;stroke-width:0.03527778"
       d="m -24.371823,148.48239 c 0,0 -0.637117,1.44251 2.412648,8.75771 0,0 1.672518,3.04412 2.397125,3.13831 1.187802,0.15417 4.513791,-1.62736 7.040033,-5.27402 l -1.91276,-1.41923 -3.74368,2.16006 -2.194983,-5.66561 c 0,0 -1.28552,-3.77896 -3.998383,-1.69722"
       inkscape:connector-curvature="0" />
    <path
       id="path338"
       style="fill:none;stroke:#efa4ad;stroke-width:0.26458332;stroke-linecap:butt;stroke-linejoin:miter;stroke-miterlimit:10;stroke-dasharray:none;stroke-opacity:1"
       d="m -18.178457,155.84522 c 0,0 -0.739068,0.3563 -0.822325,1.69192"
       inkscape:connector-curvature="0" />
    <path
       id="path340"
       style="fill:#e6a188;fill-opacity:1;fill-rule:nonzero;stroke:none;stroke-width:0.03527778"
       d="m -12.437702,154.46409 c 0,0 3.2487281,-0.0226 3.4667451,-2.20486 l -4.5712931,0.82656 1.104548,1.3783"
       inkscape:connector-curvature="0" />
    <path
       id="path342"
       style="fill:#c6c5c3;fill-opacity:1;fill-rule:nonzero;stroke:none;stroke-width:0.03527778"
       d="m -19.879198,153.08579 h 5.195006 v -0.83185 h -5.195006 c -0.229304,0 -0.415925,0.18591 -0.415925,0.41557 v 0 c 0,0.23001 0.186621,0.41628 0.415925,0.41628"
       inkscape:connector-curvature="0" />
    <path
       id="path344"
       style="fill:#d3cfcf;fill-opacity:1;fill-rule:nonzero;stroke:none;stroke-width:0.03527778"
       d="m -15.655035,153.08579 h 9.7715881 c 0.562681,0 1.056923,-0.375 1.207913,-0.91722 l 1.905352,-6.84601 c 0.168627,-0.60536 -0.286809,-1.20438 -0.915107,-1.20438 h -8.9750181 c -0.375708,0 -0.703791,0.25329 -0.799745,0.61666 l -2.194983,8.35095"
       inkscape:connector-curvature="0" />
    <path
       id="path346"
       style="fill:#ffffff;fill-opacity:1;fill-rule:nonzero;stroke:none;stroke-width:0.03527778"
       d="m -9.7054409,148.9851 c 0,0.51047 0.413809,0.92463 0.924277,0.92463 0.510472,0 0.92428,-0.41416 0.92428,-0.92463 0,-0.51047 -0.413808,-0.92428 -0.92428,-0.92428 -0.510468,0 -0.924277,0.41381 -0.924277,0.92428"
       inkscape:connector-curvature="0" />
    <path
       id="path348"
       style="fill:#fabac0;fill-opacity:1;fill-rule:nonzero;stroke:none;stroke-width:0.03527778"
       d="m -27.48544,146.0253 -4.997802,2.21544 c -0.354893,0.15734 -0.56515,0.52952 -0.516818,0.91475 l 0.73942,14.4967 h 10.613321 l 0.376767,-14.30867 c 0.04515,-0.39264 -0.09349,-0.78387 -0.376415,-1.05939 l -3.081867,-2.27612 -2.756606,0.0173"
       inkscape:connector-curvature="0" />
    <path
       id="path350"
       style="fill:none;stroke:#efa4ad;stroke-width:0.26458332;stroke-linecap:butt;stroke-linejoin:miter;stroke-miterlimit:10;stroke-dasharray:none;stroke-opacity:1"
       d="m -28.923715,146.66276 1.666875,2.52484 1.61784,-1.41076 1.636183,0.82515 v -2.05776"
       inkscape:connector-curvature="0" />
    <path
       id="path352"
       style="fill:none;stroke:#efa4ad;stroke-width:0.26458332;stroke-linecap:butt;stroke-linejoin:miter;stroke-miterlimit:10;stroke-dasharray:none;stroke-opacity:1"
       d="m -25.639,147.77684 c 0,0 0.04445,3.35632 0.202141,4.41325 0.666399,4.45981 -0.246591,7.70607 -0.246591,7.70607"
       inkscape:connector-curvature="0" />
    <path
       id="path354"
       style="fill:none;stroke:#efa4ad;stroke-width:0.26458332;stroke-linecap:butt;stroke-linejoin:miter;stroke-miterlimit:10;stroke-dasharray:none;stroke-opacity:1"
       d="m -22.562425,148.9971 c 0,0 0.86219,3.09527 0.380648,7.35047"
       inkscape:connector-curvature="0" />
    <path
       id="path356"
       style="fill:#e6a188;fill-opacity:1;fill-rule:nonzero;stroke:none;stroke-width:0.03527778"
       d="m -27.25684,158.75246 -3.336925,-0.0751 -0.447675,1.81046 3.754263,-0.14852 0.03034,-1.5868"
       inkscape:connector-curvature="0" />
    <path
       id="path358"
       style="fill:#e6a188;fill-opacity:1;fill-rule:nonzero;stroke:none;stroke-width:0.03527778"
       d="m -27.25684,158.75246 2.090915,-2.06305 c 0.105833,-0.10442 0.270581,-0.121 0.395465,-0.0395 v 0 c 0.140051,0.0914 0.184853,0.27658 0.101951,0.42228 l -0.41275,0.72143 1.8161,-0.10301 c 0.234599,-0.009 0.408165,0.21625 0.339725,0.44097 l -0.386291,1.27071 c -0.0314,0.10477 -0.110067,0.18767 -0.213077,0.22331 -0.712258,0.24694 -2.594682,1.18074 -3.762375,0.71366 l 0.03034,-1.58679"
       inkscape:connector-curvature="0" />
    <path
       id="path360"
       style="fill:#fabac0;fill-opacity:1;fill-rule:nonzero;stroke:none;stroke-width:0.03527778"
       d="m -32.675506,148.35821 c 0,0 -1.4351,0.62689 -4.024488,7.81509 0,0 -0.977196,2.76613 -0.498829,3.296 0.784225,0.86854 4.653492,2.19887 8.965496,1.19874 l 0.05221,-2.35655 -4.768498,-0.72355 2.130073,-5.461 c 0,0 1.554692,-3.52813 -1.855965,-3.76873"
       inkscape:connector-curvature="0" />
    <path
       id="path362"
       style="fill:none;stroke:#efa4ad;stroke-width:0.26458332;stroke-linecap:butt;stroke-linejoin:miter;stroke-miterlimit:10;stroke-dasharray:none;stroke-opacity:1"
       d="m -35.115317,158.05855 c 0.897467,-0.93663 2.165702,-0.47061 2.165702,-0.47061 l 2.130073,-5.461 c 0,0 1.412523,-2.61232 -0.768702,-3.52495"
       inkscape:connector-curvature="0" />
    <path
       id="path364"
       style="fill:none;stroke:#efa4ad;stroke-width:0.26458332;stroke-linecap:butt;stroke-linejoin:miter;stroke-miterlimit:10;stroke-dasharray:none;stroke-opacity:1"
       d="m -31.588244,161.14711 c 0,0 2.690284,0.16334 3.407127,0 v -2.83562 l -4.768498,-0.72355"
       inkscape:connector-curvature="0" />
    <path
       id="path366"
       style="fill:#1e1f26;fill-opacity:1;fill-rule:nonzero;stroke:none;stroke-width:0.03527778"
       d="m -21.526317,137.765 c 0,0 1.1176,1.1938 -0.271992,3.06564 l -1.142293,-2.63842 1.414285,-0.42722"
       inkscape:connector-curvature="0" />
    <path
       id="path368"
       style="fill:#e6a188;fill-opacity:1;fill-rule:nonzero;stroke:none;stroke-width:0.03527778"
       d="m -27.898894,141.05748 3.49885,2.41829 0.04727,2.78518 -1.274937,1.42522 -2.850446,-1.09784 -0.06632,-4.14902 0.645583,-1.38183"
       inkscape:connector-curvature="0" />
    <path
       id="path370"
       style="fill:#d17572;fill-opacity:1;fill-rule:nonzero;stroke:none;stroke-width:0.03527778"
       d="m -24.363709,145.77235 c 0,0 -3.380316,0.3235 -3.120672,-4.26896 l 1.149349,0.66216 1.997782,2.23097 -0.02646,1.37583"
       inkscape:connector-curvature="0" />
    <path
       id="path372"
       style="fill:#e6a188;fill-opacity:1;fill-rule:nonzero;stroke:none;stroke-width:0.03527778"
       d="m -24.11994,144.97543 -0.113594,0.013 c -1.681339,0.19685 -3.203926,-1.00718 -3.400424,-2.68887 l -0.401461,-3.43746 c -0.0508,-0.43533 0.260702,-0.82939 0.696029,-0.87983 l 4.007205,-0.46849 c 0.777168,-0.0903 1.48096,0.46602 1.571976,1.24319 l 0.329142,2.81799 c 0.196144,1.68169 -1.007533,3.20357 -2.688873,3.40042"
       inkscape:connector-curvature="0" />
    <path
       id="path374"
       style="fill:#1e1f26;fill-opacity:1;fill-rule:nonzero;stroke:none;stroke-width:0.03527778"
       d="m -29.15055,137.30322 c 0.312208,-2.08457 1.971675,-2.21474 2.417585,-2.24826 0.445913,-0.0332 1.667933,0.37571 2.237317,-0.0416 0.538691,-0.39511 1.203325,-1.26013 2.710039,-0.92216 1.034344,0.23248 1.778352,1.76882 0.743657,3.3214 -0.962732,1.44568 -5.292021,1.3275 -6.1976,1.28623 0.165804,0.6604 0.475192,2.30187 -0.327731,2.97991 -0.143582,1.05763 -0.948619,1.70639 -0.948619,1.70639 -4.789313,-5.34423 -0.634648,-6.08189 -0.634648,-6.08189"
       inkscape:connector-curvature="0" />
    <path
       id="path376"
       style="fill:#e6a188;fill-opacity:1;fill-rule:nonzero;stroke:none;stroke-width:0.03527778"
       d="m -27.048348,141.0723 c 0.07091,0.60536 -0.363008,1.15393 -0.968021,1.22449 -0.605721,0.0706 -1.153937,-0.36266 -1.224846,-0.96838 -0.07055,-0.60572 0.362657,-1.15393 0.968375,-1.22449 0.605721,-0.0709 1.153583,0.36301 1.224492,0.96838"
       inkscape:connector-curvature="0" />
    <path
       id="path378"
       style="fill:#1e1f26;fill-opacity:1;fill-rule:nonzero;stroke:none;stroke-width:0.03527778"
       d="m -24.276573,140.59146 c 0.0056,0.13794 -0.102304,0.25435 -0.240242,0.25929 -0.137935,0.006 -0.254,-0.10195 -0.259644,-0.23989 -0.0053,-0.13793 0.102307,-0.25435 0.240242,-0.25964 0.137935,-0.005 0.254,0.1023 0.259644,0.24024"
       inkscape:connector-curvature="0" />
    <path
       id="path380"
       style="fill:#1e1f26;fill-opacity:1;fill-rule:nonzero;stroke:none;stroke-width:0.03527778"
       d="m -22.153557,140.33675 c 0.0049,0.13794 -0.102303,0.25436 -0.240241,0.25965 -0.138287,0.005 -0.254352,-0.10195 -0.259644,-0.24024 -0.0056,-0.13759 0.101952,-0.25436 0.23989,-0.2593 0.138287,-0.006 0.254352,0.10196 0.259995,0.23989"
       inkscape:connector-curvature="0" />
    <path
       id="path382"
       style="fill:none;stroke:#d17572;stroke-width:0.19939741;stroke-linecap:round;stroke-linejoin:round;stroke-miterlimit:10;stroke-dasharray:none;stroke-opacity:1"
       d="m -23.126165,140.86521 0.180975,0.65794 c 0,0 0,0.38064 -0.551392,0.29562"
       inkscape:connector-curvature="0" />
    <path
       id="path384"
       style="fill:#1e1f26;fill-opacity:1;fill-rule:nonzero;stroke:none;stroke-width:0.03527778"
       d="m -25.276344,139.9494 c 0.01516,8e-4 0.03104,0 0.04657,-0.002 l 1.119359,-0.17251 c 0.124883,-0.0194 0.210256,-0.13617 0.191558,-0.2614 -0.01939,-0.12489 -0.135466,-0.21026 -0.261408,-0.19121 l -1.119362,0.17251 c -0.124883,0.0191 -0.210608,0.13617 -0.191207,0.26141 0.01693,0.10936 0.108302,0.18838 0.21449,0.19367"
       inkscape:connector-curvature="0" />
    <path
       id="path386"
       style="fill:#1e1f26;fill-opacity:1;fill-rule:nonzero;stroke:none;stroke-width:0.03527778"
       d="m -22.72294,139.60404 c 0.01516,7.9e-4 0.03069,0 0.04622,-0.002 l 0.68439,-0.10513 c 0.12523,-0.0194 0.210603,-0.13618 0.191553,-0.26141 -0.01905,-0.12488 -0.136173,-0.21061 -0.261408,-0.19156 l -0.684038,0.10548 c -0.125236,0.0194 -0.210609,0.13617 -0.191559,0.26106 0.01693,0.10936 0.108657,0.18873 0.214842,0.19403"
       inkscape:connector-curvature="0" />
    <path
       id="path388"
       style="fill:none;stroke:#d17572;stroke-width:0.19939741;stroke-linecap:round;stroke-linejoin:round;stroke-miterlimit:10;stroke-dasharray:none;stroke-opacity:1"
       d="m -24.52634,142.40333 c 0,0 0.610306,0.47695 1.872898,0.0511"
       inkscape:connector-curvature="0" />
  </g>
</svg>
