<?xml version="1.0" encoding="UTF-8" standalone="no"?>
<!-- Created with Inkscape (http://www.inkscape.org/) -->

<svg
   xmlns:dc="http://purl.org/dc/elements/1.1/"
   xmlns:cc="http://creativecommons.org/ns#"
   xmlns:rdf="http://www.w3.org/1999/02/22-rdf-syntax-ns#"
   xmlns:svg="http://www.w3.org/2000/svg"
   xmlns="http://www.w3.org/2000/svg"
   xmlns:sodipodi="http://sodipodi.sourceforge.net/DTD/sodipodi-0.dtd"
   xmlns:inkscape="http://www.inkscape.org/namespaces/inkscape"
   width="25.451565mm"
   height="25.568558mm"
   viewBox="0 0 25.451565 25.568558"
   version="1.1"
   id="svg4649"
   inkscape:version="0.92.4 (5da689c313, 2019-01-14)"
   sodipodi:docname="developer.svg">
  <defs
     id="defs4643" />
  <sodipodi:namedview
     id="base"
     pagecolor="#ffffff"
     bordercolor="#666666"
     borderopacity="1.0"
     inkscape:pageopacity="0.0"
     inkscape:pageshadow="2"
     inkscape:zoom="0.35"
     inkscape:cx="48.097447"
     inkscape:cy="48.31852"
     inkscape:document-units="mm"
     inkscape:current-layer="layer1"
     showgrid="false"
     inkscape:window-width="1920"
     inkscape:window-height="1017"
     inkscape:window-x="1912"
     inkscape:window-y="-8"
     inkscape:window-maximized="1" />
  <metadata
     id="metadata4646">
    <rdf:RDF>
      <cc:Work
         rdf:about="">
        <dc:format>image/svg+xml</dc:format>
        <dc:type
           rdf:resource="http://purl.org/dc/dcmitype/StillImage" />
        <dc:title></dc:title>
      </cc:Work>
    </rdf:RDF>
  </metadata>
  <g
     inkscape:label="Layer 1"
     inkscape:groupmode="layer"
     id="layer1"
     transform="translate(32.758521,-136.04905)">
    <path
       id="path272"
       style="fill:#915344;fill-opacity:1;fill-rule:nonzero;stroke:none;stroke-width:0.03527778"
       d="m -21.576641,159.82243 c 0.05362,-0.11077 0.210608,0.28117 0.238125,0.16087 l 2.441929,-7.03015 c 0.277635,-1.00507 -0.226131,-3.87068 -1.269296,-3.85304 -0.765527,0.0134 -1.531408,1.51659 -1.641121,2.27471 l -2.197099,6.63504 2.427462,1.81257"
       inkscape:connector-curvature="0" />
    <path
       id="path274"
       style="fill:#915344;fill-opacity:1;fill-rule:nonzero;stroke:none;stroke-width:0.03527778"
       d="m -22.312887,158.26598 -7.476773,-3.60821 -0.866068,1.16346 6.510512,5.32271 c 0.946504,0.78317 2.384779,0.34925 2.741083,-0.82621 v 0 c 0.246592,-0.81421 -0.1397,-1.68698 -0.908754,-2.05175"
       inkscape:connector-curvature="0" />
    <path
       id="path276"
       style="fill:#fabac0;fill-opacity:1;fill-rule:nonzero;stroke:none;stroke-width:0.03527778"
       d="m -18.995718,149.04119 c 0,0 1.288698,1.65418 0.449439,4.14832 l -4.337756,-1.17334 c 0,0 -0.47766,-3.13761 2.51954,-3.50697 l 1.368777,0.53199"
       inkscape:connector-curvature="0" />
    <path
       id="path278"
       style="fill:#915344;fill-opacity:1;fill-rule:nonzero;stroke:none;stroke-width:0.03527778"
       d="m -32.574838,154.29335 c -0.431448,0.70132 -0.07691,1.70321 0.791985,2.23837 0.869243,0.53517 1.923695,0.40076 2.355143,-0.30056 0.4318,-0.70062 0.07726,-1.70286 -0.791985,-2.23767 -0.868891,-0.53552 -1.923343,-0.40076 -2.355143,0.29986"
       inkscape:connector-curvature="0" />
    <path
       id="path280"
       style="fill:#fabac0;fill-opacity:1;fill-rule:nonzero;stroke:none;stroke-width:0.03527778"
       d="m -16.60212,147.12173 c 0,0 -1.920171,0.0169 -4.860573,1.6891 0,0 -0.646994,4.80765 0.923573,6.64704 l 0.224718,3.15383 7.92974,-0.0353 c 0,0 0.43956,-5.62681 2.069746,-7.04815 l -0.543629,-2.80105 c 0,0 -2.415823,-1.66476 -5.743575,-1.60549"
       inkscape:connector-curvature="0" />
    <path
       id="path282"
       style="fill:#915344;fill-opacity:1;fill-rule:nonzero;stroke:none;stroke-width:0.03527778"
       d="m -7.8049017,158.63498 c -0.01765,-0.12206 0.331611,0.11501 0.287161,0 l -1.907821,-7.19349 c -0.331965,-0.98848 -2.3526753,-3.08222 -3.2071043,-2.48426 -0.627238,0.43921 -0.420863,2.11384 -0.08819,2.80423 l 1.889831,6.72853 3.0261273,0.14499"
       inkscape:connector-curvature="0" />
    <path
       id="path284"
       style="fill:#915344;fill-opacity:1;fill-rule:nonzero;stroke:none;stroke-width:0.03527778"
       d="m -9.2855097,157.75657 -8.2161943,1.19098 -0.06738,1.4485 8.3742403,0.77117 c 1.222375,0.11959 2.172404,-1.04457 1.80975,-2.21791 v 0 c -0.250825,-0.81351 -1.05904,-1.3208 -1.900415,-1.19274"
       inkscape:connector-curvature="0" />
    <path
       id="path286"
       style="fill:#fabac0;fill-opacity:1;fill-rule:nonzero;stroke:none;stroke-width:0.03527778"
       d="m -11.696041,148.25379 c 0,0 1.9939003,0.65088 2.6934583,3.1877 l -4.2523833,1.45345 c 0,0 -2.150886,-2.33398 0.127,-4.31624 l 1.431925,-0.32491"
       inkscape:connector-curvature="0" />
    <path
       id="path288"
       style="fill:#915344;fill-opacity:1;fill-rule:nonzero;stroke:none;stroke-width:0.03527778"
       d="m -20.014187,160.20308 c 0.03422,0.82268 0.888646,1.45486 1.908527,1.41252 1.019527,-0.0427 1.818569,-0.74365 1.783998,-1.56633 -0.03422,-0.82232 -0.888648,-1.4545 -1.908175,-1.41217 -1.019529,0.0423 -1.818571,0.74366 -1.78435,1.56598"
       inkscape:connector-curvature="0" />
    <path
       id="path290"
       style="fill:#c6c5c3;fill-opacity:1;fill-rule:nonzero;stroke:none;stroke-width:0.03527778"
       d="m -14.880566,159.42591 h -5.194652 v -0.83185 h 5.194652 c 0.229658,0 0.415925,0.18591 0.415925,0.41557 v 0 c 0,0.23002 -0.186267,0.41628 -0.415925,0.41628"
       inkscape:connector-curvature="0" />
    <path
       id="path292"
       style="fill:#d3cfcf;fill-opacity:1;fill-rule:nonzero;stroke:none;stroke-width:0.03527778"
       d="m -19.104375,159.42591 h -9.771943 c -0.562681,0 -1.056569,-0.375 -1.207558,-0.91722 l -1.905704,-6.84601 c -0.168275,-0.60536 0.286806,-1.20438 0.915104,-1.20438 h 8.975018 c 0.375356,0 0.704146,0.2533 0.799748,0.61666 l 2.195335,8.35095"
       inkscape:connector-curvature="0" />
    <path
       id="path294"
       style="fill:#ffffff;fill-opacity:1;fill-rule:nonzero;stroke:none;stroke-width:0.03527778"
       d="m -25.05397,155.32522 c 0,0.51047 -0.413808,0.92463 -0.924631,0.92463 -0.510469,0 -0.924277,-0.41416 -0.924277,-0.92463 0,-0.51047 0.413808,-0.92427 0.924277,-0.92427 0.510823,0 0.924631,0.4138 0.924631,0.92427"
       inkscape:connector-curvature="0" />
    <path
       id="path296"
       style="fill:#1f1926;fill-opacity:1;fill-rule:nonzero;stroke:none;stroke-width:0.03527778"
       d="m -13.83846,142.89721 c 0.867127,0.0797 3.591983,0.48084 3.413831,2.36397 -0.08749,0.92463 -0.772583,1.70321 -1.669346,1.94416 -0.881237,0.23706 -2.095145,0.0734 -3.026479,-1.92723 -1.354666,-2.909 0.200377,-2.65994 0.802921,-2.4772 0.156988,0.048 0.315738,0.0811 0.479073,0.0963"
       inkscape:connector-curvature="0" />
    <path
       id="path298"
       style="fill:#1f1926;fill-opacity:1;fill-rule:nonzero;stroke:none;stroke-width:0.03527778"
       d="m -21.36462,140.62391 c 0.09842,2.47192 2.181929,4.39632 4.653843,4.29825 2.471915,-0.0984 4.579409,-2.38019 4.481336,-4.85211 -0.09807,-2.47191 -2.022827,-4.40019 -4.829175,-3.90878 -2.436988,0.42651 -4.404077,1.99038 -4.306004,4.46264"
       inkscape:connector-curvature="0" />
    <path
       id="path300"
       style="fill:#915344;fill-opacity:1;fill-rule:nonzero;stroke:none;stroke-width:0.03527778"
       d="m -14.986752,147.37008 -0.200025,-5.33012 -3.2893,0.14535 0.200025,5.33012 c 0.04022,0.90875 0.808919,1.61219 1.717323,1.57198 v 0 c 0.908402,-0.0402 1.612194,-0.80928 1.571977,-1.71733"
       inkscape:connector-curvature="0" />
    <path
       id="path302"
       style="fill:#7d3e39;fill-opacity:1;fill-rule:nonzero;stroke:none;stroke-width:0.03527778"
       d="m -15.05907,142.28021 c 0,0 -0.190148,3.94405 -3.232505,4.00191 l -0.08361,-1.96815 3.316113,-2.03376"
       inkscape:connector-curvature="0" />
    <path
       id="path304"
       style="fill:#915344;fill-opacity:1;fill-rule:nonzero;stroke:none;stroke-width:0.03527778"
       d="m -19.863552,148.00896 c 0,0 2.915002,-1.77341 6.815315,-0.31538 l -4.171598,2.61655 -2.643717,-2.30117"
       inkscape:connector-curvature="0" />
    <path
       id="path306"
       style="fill:#7d3e39;fill-opacity:1;fill-rule:nonzero;stroke:none;stroke-width:0.03527778"
       d="m -19.589795,141.86675 c 0.0254,0.63359 -0.468138,1.1677 -1.101725,1.1931 -0.63359,0.025 -1.167696,-0.46849 -1.193096,-1.10208 -0.02506,-0.63359 0.468489,-1.1677 1.102079,-1.19275 0.633587,-0.0254 1.167694,0.46814 1.192742,1.10173"
       inkscape:connector-curvature="0" />
    <path
       id="path308"
       style="fill:#915344;fill-opacity:1;fill-rule:nonzero;stroke:none;stroke-width:0.03527778"
       d="m -17.744062,145.58362 v 0 c -1.762479,0.0699 -3.246263,-0.93592 -3.316465,-2.69805 l -0.120298,-3.03001 c -0.0515,-1.30069 1.313746,-2.72697 2.081038,-2.75766 l 2.857852,0.68016 c 0.76694,-0.0307 1.419577,0.5722 1.449917,1.33914 l 0.119943,3.01837 c 0.06985,1.76212 -1.586087,3.38878 -3.071987,3.44805"
       inkscape:connector-curvature="0" />
    <path
       id="path310"
       style="fill:#1e1f26;fill-opacity:1;fill-rule:nonzero;stroke:none;stroke-width:0.03527778"
       d="m -18.11695,141.39579 c 0.01553,0.13935 0.141113,0.23954 0.280459,0.22402 0.139348,-0.0155 0.239889,-0.14111 0.224014,-0.28011 -0.01553,-0.1397 -0.14111,-0.23989 -0.280458,-0.22437 -0.139348,0.0155 -0.239535,0.14112 -0.224015,0.28046"
       inkscape:connector-curvature="0" />
    <path
       id="path312"
       style="fill:#1e1f26;fill-opacity:1;fill-rule:nonzero;stroke:none;stroke-width:0.03527778"
       d="m -20.439991,141.46882 c 0.01553,0.13934 0.141112,0.23953 0.280458,0.22401 0.139348,-0.0155 0.239538,-0.14111 0.224015,-0.28011 -0.01587,-0.1397 -0.141465,-0.23988 -0.280459,-0.22436 -0.139348,0.0155 -0.239889,0.14111 -0.224014,0.28046"
       inkscape:connector-curvature="0" />
    <path
       id="path314"
       style="fill:none;stroke:#7d3e39;stroke-width:0.19105279;stroke-linecap:round;stroke-linejoin:round;stroke-miterlimit:10;stroke-dasharray:none;stroke-opacity:1"
       d="m -19.434575,141.8036 -0.03951,0.7299 c 0,0 0.05821,0.38171 0.59831,0.21272"
       inkscape:connector-curvature="0" />
    <path
       id="path316"
       style="fill:#1e1f26;fill-opacity:1;fill-rule:nonzero;stroke:none;stroke-width:0.03527778"
       d="m -17.211368,140.59957 c -0.01482,0.003 -0.03069,0.005 -0.04692,0.005 l -1.149703,-0.003 c -0.128059,-2.6e-4 -0.231775,-0.10477 -0.231421,-0.23318 0,-0.12841 0.103717,-0.23178 0.232833,-0.23213 l 1.149702,0.004 c 0.128411,2.7e-4 0.232127,0.10478 0.231775,0.23319 -2.64e-4,0.11218 -0.08008,0.20531 -0.186266,0.22719"
       inkscape:connector-curvature="0" />
    <path
       id="path318"
       style="fill:#1e1f26;fill-opacity:1;fill-rule:nonzero;stroke:none;stroke-width:0.03527778"
       d="m -19.98032,140.64685 c -0.01516,0.003 -0.03105,0.005 -0.04657,0.005 l -0.703088,-0.002 c -0.12841,0 -0.232127,-0.10407 -0.231775,-0.23284 2.65e-4,-0.12841 0.104775,-0.23212 0.232834,-0.23177 l 0.702733,0.002 c 0.128765,7.9e-4 0.232481,0.10477 0.232129,0.23318 -2.64e-4,0.11219 -0.08008,0.20567 -0.186266,0.22719"
       inkscape:connector-curvature="0" />
    <path
       id="path320"
       style="fill:#1f1926;fill-opacity:1;fill-rule:nonzero;stroke:none;stroke-width:0.03527778"
       d="m -19.500543,137.36107 c 0,0 2.576335,3.48263 5.022498,3.48545 0,0 1.251654,-2.28106 -0.855134,-3.68512 -2.106789,-1.40405 -3.773664,-0.23283 -3.773664,-0.23283 l -0.3937,0.4325"
       inkscape:connector-curvature="0" />
    <path
       id="path322"
       style="fill:#1f1926;fill-opacity:1;fill-rule:nonzero;stroke:none;stroke-width:0.03527778"
       d="m -17.74865,137.88636 c 0,0 -1.270352,1.24601 -3.446285,1.61854 0,0 0.34149,-2.21121 2.254602,-2.58304 l 1.191683,0.9645"
       inkscape:connector-curvature="0" />
    <path
       id="path324"
       style="fill:#1f1926;fill-opacity:1;fill-rule:nonzero;stroke:none;stroke-width:0.03527778"
       d="m -16.113525,139.78466 c 0,0 -0.07796,1.7399 1.030817,1.90323 l 0.148521,-1.58221 -1.179338,-0.32102"
       inkscape:connector-curvature="0" />
    <path
       id="path326"
       style="fill:#915344;fill-opacity:1;fill-rule:nonzero;stroke:none;stroke-width:0.03527778"
       d="m -13.280012,141.61628 c 0.02506,0.63359 -0.468138,1.16769 -1.102079,1.19309 -0.633588,0.0251 -1.167694,-0.46849 -1.192742,-1.10207 -0.02506,-0.63359 0.468138,-1.1677 1.101725,-1.19275 0.633942,-0.0254 1.167696,0.46814 1.193096,1.10173"
       inkscape:connector-curvature="0" />
    <path
       id="path328"
       style="fill:none;stroke:#7d3e39;stroke-width:0.19105279;stroke-linecap:round;stroke-linejoin:round;stroke-miterlimit:10;stroke-dasharray:none;stroke-opacity:1"
       d="m -17.848837,142.9466 c 0,0 -0.141817,0.55598 -0.994129,0.62583"
       inkscape:connector-curvature="0" />
    <path
       id="path330"
       style="fill:#1f1926;fill-opacity:1;fill-rule:nonzero;stroke:none;stroke-width:0.03527778"
       d="m -19.322743,138.91435 c 0,0 -2.041877,1.14582 -2.813402,0.11148 0,0 0.92075,-0.0452 1.4224,-0.91087 l 1.391002,0.79939"
       inkscape:connector-curvature="0" />
    <path
       id="path332"
       style="fill:#1f1926;fill-opacity:1;fill-rule:nonzero;stroke:none;stroke-width:0.03527778"
       d="m -20.713745,138.11496 c 0,0 0.443087,-2.63384 3.655129,-1.95369 l -0.258938,1.19204 -3.396191,0.76165"
       inkscape:connector-curvature="0" />
  </g>
</svg>
